<svg viewBox="0 0 241 182" xmlns="http://www.w3.org/2000/svg" xmlns:xlink="http://www.w3.org/1999/xlink" version="1.1"  preserveAspectRatio="xMidYMid meet" role="img" class="structure-svg">
<title>the silicon revolution repeat unit</title>
<text x="0" y="0" stroke="none" fill="currentColor" transform="matrix(0.116667 0 0 0.116667 156.242 135.829)" font-style="normal" font-weight="normal" font-size="200px" font-family="Arial, Helvetica, &quot;Liberation Sans&quot;, sans-serif" >
O</text>
<text x="0" y="0" stroke="none" fill="currentColor" transform="matrix(0.116667 0 0 0.116667 94.3181 100.821)" font-style="normal" font-weight="normal" font-size="200px" font-family="Arial, Helvetica, &quot;Liberation Sans&quot;, sans-serif" >
Si</text>
<path stroke="none" fill="currentColor" transform="matrix(0.116667 0 0 0.116667 -495 -757)" d="M 5769.56,7534.56 L 5749.56,7499.92 L 6247.36,7212.42 L 6267.37,7247.05 L 5769.56,7534.56 Z " />
<path stroke="none" fill="currentColor" transform="matrix(0.116667 0 0 0.116667 -495 -757)" d="M 5262.66,7368.55 L 5282.66,7333.91 L 5570.48,7500.12 L 5550.48,7534.76 L 5262.66,7368.55 Z " />
<path stroke="none" fill="currentColor" transform="matrix(0.116667 0 0 0.116667 -495 -757)" d="M 5422.9,6745.18 L 5457.54,6765.18 L 5227.23,7164.04 L 5192.59,7144.04 L 5422.9,6745.18 Z " />
<path stroke="none" fill="currentColor" transform="matrix(0.116667 0 0 0.116667 -495 -757)" d="M 4822.89,6765.18 L 4857.53,6745.18 L 5094.55,7155.66 L 5059.91,7175.66 L 4822.89,6765.18 Z " />
<path stroke="none" fill="currentColor" transform="matrix(0.116667 0 0 0.116667 -495 -757)" d="M 4311.5,7776.4 L 4291.5,7741.76 L 5008.8,7327.54 L 5028.81,7362.18 L 4311.5,7776.4 Z " />
<path stroke="currentColor" stroke-width="40" fill="none" transform="matrix(0.116667 0 0 0.116667 -495 -757)" d="M 4722.03,7959.08 L 4620.21,7959.08 " />
<path stroke="currentColor" stroke-width="40" fill="none" transform="matrix(0.116667 0 0 0.116667 -495 -757)" d="M 4620.21,7959.08 L 4620.21,6555.18 " />
<path stroke="currentColor" stroke-width="40" fill="none" transform="matrix(0.116667 0 0 0.116667 -495 -757)" d="M 4620.21,6555.18 L 4722.03,6555.18 " />
<path stroke="currentColor" stroke-width="40" fill="none" transform="matrix(0.116667 0 0 0.116667 -495 -757)" d="M 5928.49,6555.18 L 6030.31,6555.18 " />
<path stroke="currentColor" stroke-width="40" fill="none" transform="matrix(0.116667 0 0 0.116667 -495 -757)" d="M 6030.31,6555.18 L 6030.31,7959.08 " />
<path stroke="currentColor" stroke-width="40" fill="none" transform="matrix(0.116667 0 0 0.116667 -495 -757)" d="M 6030.31,7959.08 L 5928.49,7959.08 " />
<text x="0" y="0" stroke="none" fill="currentColor" transform="matrix(0.116667 0 0 0.116667 212.286 176.936)" font-style="normal" font-weight="normal" font-size="150px" font-family="Arial, Helvetica, &quot;Liberation Sans&quot;, sans-serif" >
n</text>
</svg>
